# xmcd
#
# Track frame offsets: 
#        150
#        19023
#        39935
#        50889
#        82761
#        100956
#        116829
#        141690
#        166647
#        188682
#        204873
#        217798
#
# Disc length: 3236 seconds
#
# Revision: 2
# Processed by: cddbd v1.5.2PL0 Copyright (c) Steve Scherf et al.
# Submitted via: ExactAudioCopy v0.99pb5
#
DISCID=990ca20c
DTITLE=Beck, Mike  - Where the Green Grass Grows
DYEAR=1997
DGENRE=Folk-Rock
TTITLE0=Where the Green Grass Brows
TTITLE1=Vaquero
TTITLE2=Ropin' to Do
TTITLE3=Ballad of Jimmie Day
TTITLE4=Vision Seeker
TTITLE5=Don't Tell Me
TTITLE6=In Old California
TTITLE7=I Can't Find Juanita
TTITLE8=If You Could
TTITLE9=Life of a Buckaroo
TTITLE10=Both Sides Now
TTITLE11=Old Chisholm Trail
EXTD=
EXTT0=
EXTT1=
EXTT2=
EXTT3=
EXTT4=
EXTT5=
EXTT6=
EXTT7=
EXTT8=
EXTT9=
EXTT10=
EXTT11=
PLAYORDER=
